<?xml version="1.0" standalone="no"?>
<!DOCTYPE svg PUBLIC "-//W3C//DTD SVG 20010904//EN"
 "http://www.w3.org/TR/2001/REC-SVG-20010904/DTD/svg10.dtd">
<svg version="1.0" xmlns="http://www.w3.org/2000/svg"
 width="563.000000pt" height="104.000000pt" viewBox="0 0 563.000000 104.000000"
 preserveAspectRatio="xMidYMid meet">

<g transform="translate(0.000000,104.000000) scale(0.100000,-0.100000)"
fill="#f8fafd" stroke="none">
<path d="M0 520 l0 -520 2815 0 2815 0 0 520 0 520 -2815 0 -2815 0 0 -520z
m524 344 c9 -8 16 -24 16 -35 0 -18 10 -19 279 -19 154 0 286 -3 295 -6 14 -5
16 -45 16 -339 0 -294 -2 -334 -16 -339 -25 -10 -908 -7 -923 3 -11 7 -23 74
-42 237 -16 125 -26 231 -23 236 3 4 77 8 165 8 l160 0 15 35 14 35 288 0
c158 0 293 -4 299 -8 8 -5 19 -65 28 -158 9 -82 17 -153 20 -159 2 -5 3 89 2
210 l-2 220 -291 3 -290 2 -13 35 -12 36 -142 -3 -142 -3 -6 -110 -5 -110 -2
117 c-1 85 1 118 11 121 6 3 74 6 149 6 112 1 139 -2 152 -15z m1480 -60 c19
-18 20 -38 6 -65 -13 -23 -62 -26 -84 -3 -32 32 -8 84 39 84 13 0 31 -7 39
-16z m-194 -239 l0 -245 -50 0 c-38 0 -50 4 -50 15 0 13 -4 13 -27 -2 -31 -20
-117 -22 -154 -3 -36 18 -69 51 -87 85 -21 41 -20 131 3 178 38 80 150 119
228 79 l37 -20 0 79 0 79 50 0 50 0 0 -245z m2480 0 l0 -245 -50 0 c-37 0 -50
4 -50 14 0 12 -8 11 -46 -5 -39 -18 -52 -19 -96 -10 -65 15 -101 41 -127 94
-34 71 -22 166 27 220 49 55 140 71 205 38 l37 -19 0 79 0 79 50 0 50 0 0
-245z m-1947 106 c29 -15 37 -16 37 -5 0 10 14 14 50 14 l50 0 0 -180 0 -180
-50 0 c-38 0 -50 4 -50 15 0 13 -4 13 -27 -2 -33 -22 -117 -22 -158 0 -66 34
-97 88 -97 168 0 140 128 229 245 170z m519 -13 c38 -26 48 -73 48 -215 l0
-123 -50 0 -50 0 0 118 c0 137 -10 162 -64 162 -59 0 -71 -25 -74 -161 l-4
-119 -49 0 -49 0 0 180 0 180 50 0 c39 0 50 -3 50 -16 0 -13 3 -14 14 -5 41
34 130 34 178 -1z m371 18 c20 -8 37 -10 37 -5 0 5 23 9 50 9 l50 0 0 -187 c0
-180 -1 -188 -25 -228 -29 -51 -80 -75 -158 -75 -56 0 -139 23 -156 44 -15 18
27 79 48 70 72 -31 97 -35 133 -24 21 6 42 19 48 30 18 33 12 40 -21 28 -83
-29 -199 15 -233 87 -71 150 71 306 227 251z m514 -22 c50 -29 84 -81 91 -139
13 -120 -119 -227 -241 -194 -155 41 -198 229 -74 323 65 50 148 53 224 10z
m904 10 c58 -29 91 -88 93 -163 l1 -36 -137 -3 c-76 -1 -138 -6 -138 -11 0
-18 41 -43 80 -48 32 -5 48 -1 70 16 28 20 30 20 65 4 39 -19 43 -32 18 -55
-83 -73 -207 -73 -284 0 -90 86 -72 233 36 290 64 33 139 36 196 6z m783 -2
c38 -22 40 -31 12 -66 l-24 -29 -45 18 c-52 20 -90 17 -95 -8 -4 -19 0 -21 82
-38 81 -15 116 -50 116 -114 0 -55 -27 -88 -86 -104 -53 -15 -81 -14 -140 4
-68 21 -89 38 -75 62 30 51 36 54 70 37 40 -20 101 -28 120 -15 23 15 4 40
-36 46 -114 19 -158 54 -158 125 0 49 33 86 89 99 53 13 133 4 170 -17z
m-3416 -189 c-3 -228 -6 -240 -64 -268 -18 -8 -53 -15 -79 -15 l-46 0 3 41 c3
39 5 42 36 44 18 2 36 6 40 10 4 4 8 94 10 201 l3 194 50 0 50 0 -3 -207z
m2897 121 l39 -86 43 86 43 86 56 0 56 0 -93 -177 c-50 -98 -95 -182 -99 -186
-7 -8 -190 335 -190 355 0 4 24 8 53 8 l53 0 39 -86z"/>
<path d="M476 625 l-15 -35 -160 0 c-89 0 -161 -4 -161 -8 0 -21 51 -418 55
-429 3 -10 104 -13 459 -13 250 0 457 3 459 8 2 4 -8 120 -22 257 l-26 250
-287 3 -288 2 -14 -35z m163 -171 l-53 -54 54 -55 c29 -30 50 -58 46 -62 -4
-4 -34 22 -66 57 l-58 65 61 63 c34 34 64 57 66 51 2 -6 -21 -35 -50 -65z
m140 -45 c-22 -63 -46 -118 -52 -124 -7 -7 -8 -4 -3 10 53 144 89 235 93 232
2 -3 -15 -56 -38 -118z m148 59 l63 -62 -62 -63 c-34 -35 -67 -63 -72 -63 -6
0 16 27 49 60 l59 60 -57 58 c-54 55 -66 72 -50 72 4 0 36 -28 70 -62z"/>
<path d="M1567 589 c-9 -5 -24 -24 -33 -41 -34 -66 13 -144 87 -142 58 2 89
34 89 93 0 25 -6 53 -13 62 -28 36 -92 50 -130 28z"/>
<path d="M4030 572 c-53 -53 -35 -139 34 -162 66 -21 126 26 126 99 0 44 -37
81 -87 88 -37 5 -45 2 -73 -25z"/>
<path d="M2242 590 c-13 -6 -29 -25 -37 -44 -30 -72 11 -139 85 -139 59 0 90
32 90 92 0 25 -6 53 -13 62 -28 36 -78 48 -125 29z"/>
<path d="M3129 585 c-15 -8 -31 -27 -37 -43 -21 -61 12 -115 79 -127 29 -5 41
-2 66 19 92 77 -2 208 -108 151z"/>
<path d="M3604 590 c-53 -21 -72 -105 -34 -153 40 -51 126 -43 155 14 45 86
-33 175 -121 139z"/>
<path d="M4510 582 c-19 -9 -36 -25 -38 -34 -3 -16 6 -18 83 -18 75 0 86 2 81
16 -3 9 -6 17 -6 20 0 6 -58 34 -72 34 -7 0 -29 -8 -48 -18z"/>
</g>
</svg>
